<svg width="38" height="40" viewBox="0 0 38 40" fill="none" xmlns="http://www.w3.org/2000/svg">
<path d="M25.6797 19.0234L28.0918 21.5625L25.0859 24.7266C24.8633 24.9609 24.8633 25.1953 25.0859 25.4297L25.7168 26.0938C25.9395 26.3281 26.1621 26.3281 26.3848 26.0938L29.3906 22.9297L34.0293 27.8125L31.0234 30.9766C30.8008 31.2109 30.8008 31.4323 31.0234 31.6406L31.6543 32.3438C31.877 32.5781 32.0996 32.5781 32.3223 32.3438L35.3281 29.1797L37.666 31.6406C37.8887 31.875 38 32.1615 38 32.5C38 32.8385 37.8887 33.138 37.666 33.3984L31.7285 39.6484C31.4811 39.8828 31.1966 40 30.875 40C30.5534 40 30.2812 39.8828 30.0586 39.6484L18.0723 27.0312L11.0957 34.375C10.6999 34.7917 10.2174 35 9.64844 35C9.07943 35 8.597 34.7917 8.20117 34.375L5.38086 31.3672C4.98503 30.9505 4.78711 30.4492 4.78711 29.8633C4.78711 29.2773 4.98503 28.776 5.38086 28.3594L12.3574 21.0156L0.333984 8.35938C0.111328 8.125 0 7.83854 0 7.5C0 7.16146 0.111328 6.875 0.333984 6.64062L6.27148 0.351562C6.51888 0.117188 6.80339 0 7.125 0C7.44661 0 7.71875 0.117188 7.94141 0.351562L10.2793 2.8125L7.27344 5.97656C7.05078 6.21094 7.05078 6.44531 7.27344 6.67969L7.9043 7.34375C8.12695 7.57812 8.34961 7.57812 8.57227 7.34375L11.5781 4.17969L16.2168 9.0625L13.2109 12.2266C12.9883 12.4609 12.9883 12.6953 13.2109 12.9297L13.8418 13.5938C14.0645 13.8281 14.2871 13.8281 14.5098 13.5938L17.5156 10.4297L19.9277 13.0078L31.6914 0.625C32.0872 0.208333 32.5635 0 33.1201 0C33.6768 0 34.153 0.208333 34.5488 0.625L37.4062 3.63281C37.8021 4.04948 38 4.55078 38 5.13672C38 5.72266 37.8021 6.22396 37.4062 6.64062L25.6797 19.0234ZM2.44922 31.5625C2.4987 31.7708 2.58529 31.9401 2.70898 32.0703L7.5332 37.1484C7.6569 37.2786 7.81771 37.3698 8.01562 37.4219C7.89193 37.6823 7.79297 37.8385 7.71875 37.8906L1.1875 40C0.59375 40 0.247396 39.9479 0.148437 39.8438C0.0494791 39.7396 0 39.375 0 38.75L2.00391 31.875C2.05339 31.8229 2.20182 31.7188 2.44922 31.5625Z" fill="#F794D5"/>
</svg>
