<svg width="66" height="71" viewBox="0 0 66 71" fill="none" xmlns="http://www.w3.org/2000/svg">
<path d="M33 0.109375C14.7758 0.109375 0 15.9572 0 35.4999C0 55.0427 14.7758 70.8904 33 70.8904C51.227 70.8904 66 55.0427 66 35.4999C66 15.9572 51.2242 0.109375 33 0.109375ZM31.5122 14.3094C36.7647 13.9248 42.1713 15.4779 46.4503 20.0308C50.3718 24.2819 53.3527 30.2075 53.2922 35.7602H59.158L46.937 50.4425L34.7132 35.7602H41.074C41.0713 30.6601 39.8998 27.6485 36.179 23.7021C32.5353 19.7497 28.8448 17.46 22.4895 16.889C25.3235 15.4384 28.3826 14.5648 31.5122 14.3123V14.3094ZM19.0685 20.5603L31.2922 35.2425H24.9315C24.9315 40.3427 26.103 43.3543 29.821 47.3007C33.4675 51.253 37.1552 53.5487 43.5105 54.1197C36.1295 57.8708 26.4055 58.2554 19.558 50.972C15.6338 46.7209 12.65 40.7953 12.7133 35.2425H6.842L19.0685 20.5603Z" fill="white"/>
</svg>
